<?xml version="1.0" encoding="utf-8"?>
<!-- Generator: Adobe Illustrator 25.2.0, SVG Export Plug-In . SVG Version: 6.00 Build 0)  -->
<svg version="1.1" id="Layer_1" xmlns="http://www.w3.org/2000/svg" xmlns:xlink="http://www.w3.org/1999/xlink" x="0px" y="0px"
	 viewBox="0 0 123.29 125" style="enable-background:new 0 0 123.29 125;" xml:space="preserve">
<style type="text/css">
	.st0{fill:none;}
	.st1{fill:#5FCFFD;}
	.st2{fill:#008EFE;}
	.st3{fill:#2A48FF;}
	.st4{fill:url(#SVGID_1_);}
	.st5{fill:url(#SVGID_2_);}
	.st6{fill:#FFFFFF;}
	.st7{fill:url(#SVGID_3_);}
	.st8{fill:url(#SVGID_4_);}
	.st9{fill:url(#SVGID_5_);}
	.st10{fill:#050815;}
	.st11{fill:url(#SVGID_6_);}
	.st12{fill:url(#SVGID_7_);}
	.st13{fill:url(#SVGID_8_);}
	.st14{fill:url(#SVGID_9_);}
	.st15{fill:url(#SVGID_10_);}
</style>
<g>
	<path class="st1" d="M121.19,34.35L61.7,71.77L2.1,34.33c1.33-2.28,3.24-4.21,5.61-5.58L54.25,1.89c4.71-2.58,10.43-2.53,15.1,0.17
		l46.23,26.69C117.95,30.12,119.86,32.06,121.19,34.35z"/>
	<path class="st2" d="M105.24,43.57L61.7,71.77L18.02,43.52c2.77-4.68,6.76-8.57,11.69-11.43l16.03-9.27
		c9.79-5.72,22.09-5.72,31.97,0l16.03,9.27C98.66,34.86,102.55,38.83,105.24,43.57z"/>
	<path class="st3" d="M87.66,53.73L61.7,71.77L35.7,53.73c5.2-8.91,14.9-14.88,25.98-14.88C72.85,38.85,82.55,44.82,87.66,53.73z"/>
	<linearGradient id="SVGID_1_" gradientUnits="userSpaceOnUse" x1="61.6426" y1="125" x2="61.6426" y2="34.3368">
		<stop  offset="0" style="stop-color:#050815"/>
		<stop  offset="0.265" style="stop-color:#0A0D1A"/>
		<stop  offset="0.5814" style="stop-color:#191B27"/>
		<stop  offset="0.9229" style="stop-color:#31333E"/>
		<stop  offset="1" style="stop-color:#373944"/>
	</linearGradient>
	<path class="st4" d="M123.29,42.09c0-2.77-0.75-5.43-2.1-7.75l-59.5,34.4L2.1,34.34C0.75,36.65,0,39.31,0,42.08v53.43
		c0.01,5.09,2.53,9.82,6.68,12.68l28.95,16.69c0.61,0.35,1.36-0.09,1.36-0.79V82.95l0.17,0.09l23.61,13.6
		c0.56,0.32,1.26,0.32,1.82,0l23.7-13.68v41.14c0,0.7,0.76,1.14,1.36,0.79l28.59-16.46c4.37-2.83,7.04-7.68,7.04-12.93V42.09z"/>
</g>
</svg>
